# Blender v2.71 (sub 0) OBJ File: ''
# www.blender.org
o Cylinder
v 0.000000 0.000000 -0.300000
v 0.000000 1.000000 -0.300000
v 0.058527 0.000000 -0.294236
v 0.058527 1.000000 -0.294236
v 0.114805 0.000000 -0.277164
v 0.114805 1.000000 -0.277164
v 0.166671 0.000000 -0.249441
v 0.166671 1.000000 -0.249441
v 0.212132 0.000000 -0.212132
v 0.212132 1.000000 -0.212132
v 0.249441 0.000000 -0.166671
v 0.249441 1.000000 -0.166671
v 0.277164 0.000000 -0.114805
v 0.277164 1.000000 -0.114805
v 0.294236 0.000000 -0.058527
v 0.294236 1.000000 -0.058527
v 0.300000 0.000000 -0.000000
v 0.300000 1.000000 -0.000000
v 0.294236 0.000000 0.058527
v 0.294236 1.000000 0.058527
v 0.277164 0.000000 0.114805
v 0.277164 1.000000 0.114805
v 0.249441 0.000000 0.166671
v 0.249441 1.000000 0.166671
v 0.212132 0.000000 0.212132
v 0.212132 1.000000 0.212132
v 0.166671 0.000000 0.249441
v 0.166671 1.000000 0.249441
v 0.114805 0.000000 0.277164
v 0.114805 1.000000 0.277164
v 0.058527 0.000000 0.294236
v 0.058527 1.000000 0.294236
v -0.000000 0.000000 0.300000
v -0.000000 1.000000 0.300000
v -0.058527 0.000000 0.294236
v -0.058527 1.000000 0.294236
v -0.114805 0.000000 0.277164
v -0.114805 1.000000 0.277164
v -0.166671 0.000000 0.249441
v -0.166671 1.000000 0.249441
v -0.212132 0.000000 0.212132
v -0.212132 1.000000 0.212132
v -0.249441 0.000000 0.166671
v -0.249441 1.000000 0.166671
v -0.277164 0.000000 0.114805
v -0.277164 1.000000 0.114805
v -0.294236 0.000000 0.058527
v -0.294236 1.000000 0.058527
v -0.300000 0.000000 -0.000000
v -0.300000 1.000000 -0.000000
v -0.294236 0.000000 -0.058527
v -0.294236 1.000000 -0.058527
v -0.277164 0.000000 -0.114805
v -0.277164 1.000000 -0.114805
v -0.249441 0.000000 -0.166671
v -0.249441 1.000000 -0.166671
v -0.212132 0.000000 -0.212132
v -0.212132 1.000000 -0.212132
v -0.166671 0.000000 -0.249441
v -0.166671 1.000000 -0.249441
v -0.114805 0.000000 -0.277164
v -0.114805 1.000000 -0.277164
v -0.058527 0.000000 -0.294236
v -0.058527 1.000000 -0.294236
vn 0.000000 0.685700 -0.727900
vn 0.142000 0.685700 -0.713900
vn 0.142000 -0.685700 -0.713900
vn 0.278500 0.685700 -0.672500
vn 0.278500 -0.685700 -0.672500
vn 0.404400 0.685700 -0.605200
vn 0.404400 -0.685700 -0.605200
vn 0.514700 0.685700 -0.514700
vn 0.514700 -0.685700 -0.514700
vn 0.605200 0.685700 -0.404400
vn 0.605200 -0.685700 -0.404400
vn 0.672500 0.685700 -0.278500
vn 0.672500 -0.685700 -0.278500
vn 0.713900 0.685700 -0.142000
vn 0.713900 -0.685700 -0.142000
vn 0.727900 0.685700 0.000000
vn 0.727900 -0.685700 0.000000
vn 0.713900 0.685700 0.142000
vn 0.713900 -0.685700 0.142000
vn 0.672500 0.685700 0.278500
vn 0.672500 -0.685700 0.278500
vn 0.605200 0.685700 0.404400
vn 0.605200 -0.685700 0.404400
vn 0.514700 0.685700 0.514700
vn 0.514700 -0.685700 0.514700
vn 0.404400 0.685700 0.605200
vn 0.404400 -0.685700 0.605200
vn 0.278500 0.685700 0.672500
vn 0.278500 -0.685700 0.672500
vn 0.142000 0.685700 0.713900
vn 0.142000 -0.685700 0.713900
vn 0.000000 0.685700 0.727900
vn 0.000000 -0.685700 0.727900
vn -0.142000 0.685700 0.713900
vn -0.142000 -0.685700 0.713900
vn -0.278500 0.685700 0.672500
vn -0.278500 -0.685700 0.672500
vn -0.404400 0.685700 0.605200
vn -0.404400 -0.685700 0.605200
vn -0.514700 0.685700 0.514700
vn -0.514700 -0.685700 0.514700
vn -0.605200 0.685700 0.404400
vn -0.605200 -0.685700 0.404400
vn -0.672500 0.685700 0.278500
vn -0.672500 -0.685700 0.278500
vn -0.713900 0.685700 0.142000
vn -0.713900 -0.685700 0.142000
vn -0.727900 0.685700 0.000000
vn -0.727900 -0.685700 0.000000
vn -0.713900 0.685700 -0.142000
vn -0.713900 -0.685700 -0.142000
vn -0.672500 0.685700 -0.278500
vn -0.672500 -0.685700 -0.278500
vn -0.605200 0.685700 -0.404400
vn -0.605200 -0.685700 -0.404400
vn -0.514700 0.685700 -0.514700
vn -0.514700 -0.685700 -0.514700
vn -0.404400 0.685700 -0.605200
vn -0.404400 -0.685700 -0.605200
vn -0.278500 0.685700 -0.672500
vn -0.278500 -0.685700 -0.672500
vn -0.142000 0.685700 -0.713900
vn 0.000000 -0.685700 -0.727900
vn -0.142000 -0.685700 -0.713900
s 1
f 2//1 4//2 3//3
f 4//2 6//4 5//5
f 6//4 8//6 7//7
f 8//6 10//8 9//9
f 10//8 12//10 11//11
f 12//10 14//12 13//13
f 14//12 16//14 15//15
f 16//14 18//16 17//17
f 18//16 20//18 19//19
f 20//18 22//20 21//21
f 22//20 24//22 23//23
f 24//22 26//24 25//25
f 26//24 28//26 27//27
f 28//26 30//28 29//29
f 30//28 32//30 31//31
f 32//30 34//32 33//33
f 34//32 36//34 35//35
f 36//34 38//36 37//37
f 38//36 40//38 39//39
f 40//38 42//40 41//41
f 42//40 44//42 43//43
f 44//42 46//44 45//45
f 46//44 48//46 47//47
f 48//46 50//48 49//49
f 50//48 52//50 51//51
f 52//50 54//52 53//53
f 54//52 56//54 55//55
f 56//54 58//56 57//57
f 58//56 60//58 59//59
f 60//58 62//60 61//61
f 22//20 6//4 30//28
f 64//62 2//1 1//63
f 62//60 64//62 63//64
f 37//37 39//39 51//51
f 1//63 2//1 3//3
f 3//3 4//2 5//5
f 5//5 6//4 7//7
f 7//7 8//6 9//9
f 9//9 10//8 11//11
f 11//11 12//10 13//13
f 13//13 14//12 15//15
f 15//15 16//14 17//17
f 17//17 18//16 19//19
f 19//19 20//18 21//21
f 21//21 22//20 23//23
f 23//23 24//22 25//25
f 25//25 26//24 27//27
f 27//27 28//26 29//29
f 29//29 30//28 31//31
f 31//31 32//30 33//33
f 33//33 34//32 35//35
f 35//35 36//34 37//37
f 37//37 38//36 39//39
f 39//39 40//38 41//41
f 41//41 42//40 43//43
f 43//43 44//42 45//45
f 45//45 46//44 47//47
f 47//47 48//46 49//49
f 49//49 50//48 51//51
f 51//51 52//50 53//53
f 53//53 54//52 55//55
f 55//55 56//54 57//57
f 57//57 58//56 59//59
f 59//59 60//58 61//61
f 2//1 64//62 4//2
f 64//62 62//60 58//56
f 62//60 60//58 58//56
f 54//52 64//62 56//54
f 10//8 22//20 18//16
f 38//36 36//34 44//42
f 42//40 38//36 44//42
f 42//40 40//38 38//36
f 30//28 6//4 34//32
f 34//32 32//30 30//28
f 30//28 28//26 26//24
f 26//24 24//22 22//20
f 22//20 20//18 18//16
f 14//12 10//8 16//14
f 14//12 12//10 10//8
f 10//8 8//6 6//4
f 6//4 54//52 52//50
f 61//61 62//60 63//64
f 46//44 44//42 48//46
f 6//4 36//34 34//32
f 36//34 6//4 44//42
f 30//28 26//24 22//20
f 64//62 6//4 4//2
f 6//4 22//20 10//8
f 6//4 64//62 54//52
f 48//46 44//42 6//4
f 63//64 64//62 1//63
f 6//4 52//50 48//46
f 52//50 50//48 48//46
f 10//8 18//16 16//14
f 64//62 58//56 56//54
f 63//64 1//63 3//3
f 7//7 9//9 5//5
f 51//51 39//39 43//43
f 15//15 9//9 13//13
f 19//19 21//21 17//17
f 21//21 15//15 17//17
f 31//31 25//25 29//29
f 35//35 25//25 33//33
f 37//37 51//51 15//15
f 39//39 41//41 43//43
f 43//43 45//45 47//47
f 47//47 49//49 51//51
f 51//51 53//53 55//55
f 59//59 63//64 57//57
f 59//59 61//61 63//64
f 63//64 55//55 57//57
f 63//64 9//9 15//15
f 21//21 23//23 25//25
f 9//9 3//3 5//5
f 51//51 63//64 15//15
f 47//47 51//51 43//43
f 55//55 63//64 51//51
f 25//25 27//27 29//29
f 9//9 11//11 13//13
f 15//15 21//21 25//25
f 9//9 63//64 3//3
f 25//25 31//31 33//33
f 35//35 15//15 25//25
f 37//37 15//15 35//35
